<svg id="e75299d2-008a-4030-b937-91831bf5417c" data-name="Capa 1" xmlns="http://www.w3.org/2000/svg" viewBox="0 0 382.06 331.94"><defs><style>.a407a02d-2607-49c2-aeb7-73f6c6b011e3{fill:#fbb825;}.b2836cde-6297-40fd-bf7c-29d079b7595f{fill:#4d5777;}.b7e02283-73c8-43e6-923b-dbf96c49fa9d{fill:#e9e100;}.aa6b7f9d-9209-431a-9c5d-e80ce9f1b13e{fill:#70c7da;}</style></defs><circle class="a407a02d-2607-49c2-aeb7-73f6c6b011e3" cx="149.56" cy="168.14" r="149.56"/><ellipse class="b2836cde-6297-40fd-bf7c-29d079b7595f" cx="171.42" cy="174.22" rx="184.35" ry="8.55" transform="translate(-72.08 221.34) rotate(-56.96)"/><ellipse class="b2836cde-6297-40fd-bf7c-29d079b7595f" cx="107.42" cy="219.77" rx="135.69" ry="3.15" transform="translate(-139.38 188.41) rotate(-56.96)"/><ellipse class="b2836cde-6297-40fd-bf7c-29d079b7595f" cx="244.08" cy="115.36" rx="135.69" ry="3.15" transform="translate(10.3 255.49) rotate(-56.96)"/><polygon class="b7e02283-73c8-43e6-923b-dbf96c49fa9d" points="147.66 218.88 240.37 286.7 259.61 229.74 382.06 300.61 243.87 184.98 233.37 255.4 147.66 218.88"/><rect class="aa6b7f9d-9209-431a-9c5d-e80ce9f1b13e" x="294.76" y="117.06" width="34.5" height="34.5" transform="translate(153.79 -169.95) rotate(39.71)"/><rect class="aa6b7f9d-9209-431a-9c5d-e80ce9f1b13e" x="260.39" y="158.44" width="34.5" height="34.5" transform="translate(172.3 -138.45) rotate(39.71)"/><rect class="aa6b7f9d-9209-431a-9c5d-e80ce9f1b13e" x="298.64" y="190.2" width="34.5" height="34.5" transform="translate(201.41 -155.55) rotate(39.71)"/><rect class="aa6b7f9d-9209-431a-9c5d-e80ce9f1b13e" x="333" y="148.82" width="34.5" height="34.5" transform="translate(182.9 -187.05) rotate(39.71)"/></svg>