<svg id="e76153da-07d5-4985-8913-64a3f358c5cc" data-name="Capa 1" xmlns="http://www.w3.org/2000/svg" viewBox="0 0 396.15 369.72"><defs><style>.aa774ea7-19ca-4a4a-9366-140f63bd8abc{fill:#869599;}.bf02bec2-98ed-430e-9871-d8db2e704ad8{fill:#20bbe7;}</style></defs><path class="aa774ea7-19ca-4a4a-9366-140f63bd8abc" d="M287.62,85.35c-11.38-42.6-47.36-73.74-90-73.74s-78.8,31.28-90.09,74C48.28,89.89,1.92,128,1.92,174.49c0,49.29,52.22,89.26,116.63,89.26,31.69,0,60.43-9.68,81.45-25.38,21,15.7,49.76,25.38,81.45,25.38,64.41,0,116.63-40,116.63-89.26C398.08,126.78,349.16,87.81,287.62,85.35Z" transform="translate(-1.92 -11.61)"/><ellipse class="bf02bec2-98ed-430e-9871-d8db2e704ad8" cx="168.15" cy="321.08" rx="52.22" ry="1.88" transform="translate(-194.51 274.37) rotate(-56.8)"/><ellipse class="bf02bec2-98ed-430e-9871-d8db2e704ad8" cx="126.99" cy="337.63" rx="52.22" ry="1.88" transform="translate(-226.99 247.41) rotate(-56.8)"/><ellipse class="bf02bec2-98ed-430e-9871-d8db2e704ad8" cx="214.07" cy="313.46" rx="52.22" ry="1.88" transform="translate(-167.36 309.35) rotate(-56.8)"/><ellipse class="bf02bec2-98ed-430e-9871-d8db2e704ad8" cx="122.04" cy="306.32" rx="43.53" ry="1.64" transform="translate(-203.02 229.11) rotate(-56.8)"/><ellipse class="bf02bec2-98ed-430e-9871-d8db2e704ad8" cx="251.16" cy="306.32" rx="43.53" ry="1.64" transform="translate(-144.6 337.15) rotate(-56.8)"/></svg>