<svg id="ea201e97-5619-4c8b-889c-07c2f95c5aaa" data-name="Capa 1" xmlns="http://www.w3.org/2000/svg" viewBox="0 0 396.15 379.78"><defs><style>.f063972d-aac3-4ac8-9452-325465734bce{fill:#869599;}.b40158ae-ce74-4f70-acbe-6ac45a123b3e{fill:#f3e600;}</style></defs><path class="f063972d-aac3-4ac8-9452-325465734bce" d="M287.62,77c-11.38-42.6-47.36-73.74-90-73.74s-78.8,31.27-90.09,74C48.28,81.55,1.92,119.71,1.92,166.15c0,49.3,52.22,89.26,116.63,89.26,31.69,0,60.43-9.68,81.45-25.38,21,15.7,49.76,25.38,81.45,25.38,64.41,0,116.63-40,116.63-89.26C398.08,118.44,349.16,79.47,287.62,77Z" transform="translate(-1.92 -3.28)"/><polygon class="b40158ae-ce74-4f70-acbe-6ac45a123b3e" points="179.26 247.08 214.87 249.78 199.6 304.14 232.36 310.55 194.83 379.78 211.82 326.04 180.56 319.23 179.26 247.08"/><line class="b40158ae-ce74-4f70-acbe-6ac45a123b3e" x1="171.68" y1="268.2" x2="147.92" y2="256.68"/><line class="b40158ae-ce74-4f70-acbe-6ac45a123b3e" x1="171.68" y1="290.27" x2="147.92" y2="278.75"/><line class="b40158ae-ce74-4f70-acbe-6ac45a123b3e" x1="171.68" y1="311.96" x2="147.92" y2="300.44"/><line class="b40158ae-ce74-4f70-acbe-6ac45a123b3e" x1="196.67" y1="336.86" x2="171.85" y2="327.86"/><line class="b40158ae-ce74-4f70-acbe-6ac45a123b3e" x1="194.67" y1="353.74" x2="169.85" y2="344.74"/><line class="b40158ae-ce74-4f70-acbe-6ac45a123b3e" x1="220.48" y1="265.03" x2="244.24" y2="253.51"/><line class="b40158ae-ce74-4f70-acbe-6ac45a123b3e" x1="220.48" y1="281.1" x2="244.24" y2="269.58"/><line class="b40158ae-ce74-4f70-acbe-6ac45a123b3e" x1="220.48" y1="298.79" x2="244.24" y2="287.27"/><line class="b40158ae-ce74-4f70-acbe-6ac45a123b3e" x1="229.76" y1="329.65" x2="247.85" y2="321.33"/><line class="b40158ae-ce74-4f70-acbe-6ac45a123b3e" x1="219.75" y1="346.79" x2="237.84" y2="338.46"/><line class="b40158ae-ce74-4f70-acbe-6ac45a123b3e" x1="208.44" y1="364.16" x2="226.53" y2="355.83"/></svg>